<?xml version="1.0" encoding="utf-8"?>
<svg viewBox="15.67 30.7829 83.54 60.7571" xmlns="http://www.w3.org/2000/svg">
  <path stroke-width="0" fill="#9c9c9c" class="c" d="M40.46,70.39c-7.64.2-15.45,2.7-24.79,1.38,7.13-7.1,15.52-10.71,22.97-15.71-1.85-6.25-6.6-9.91-9.78-14.86,6.99,1.36,11.86,5.94,16.4,11.63,7.1-2.63,14.01-5.19,21.39-7.92-2.14-5.99-6.6-9.63-10.13-14.12,5.19-.1,6.39.72,17.76,11.94,7.8-.42,15.61-3.44,24.93-2.68-6.07,7.12-13.63,10.72-20.26,15.86-.57,6.51-.09,13.44-4.85,19.95-1.11-5.61.06-10.69-1.64-15.19-2-1.24-3.42,0-4.9.58-3.88,1.49-7.7,3.16-11.62,4.55-7.64,2.71-9.89,7.24-7.32,15.04.57,1.72,1.39,3.47,1.46,5.23.13,2.98-1.34,5.46-4.53,5.47-3.2,0-4.48-2.46-4.63-5.45-.1-1.9.89-3.51,1.49-5.23,1.45-4.15.98-6.76-1.94-10.45Z" transform="matrix(0.9999999999999999, 0, 0, 0.9999999999999999, -3.552713678800501e-15, 0)"/>
</svg>